<svg width="25" height="25" viewBox="0 0 25 25" fill="none" xmlns="http://www.w3.org/2000/svg">
<path d="M6.58881 7.3674L6.31268 7.08174V17.9183L6.58881 17.6326C6.6776 17.5438 6.78299 17.4734 6.89899 17.4254C7.01499 17.3773 7.13932 17.3526 7.26487 17.3526C7.39043 17.3526 7.51476 17.3773 7.63075 17.4254C7.74675 17.4734 7.85215 17.5438 7.94093 17.6326C8.02971 17.7214 8.10014 17.8268 8.14819 17.9428C8.19623 18.0588 8.22096 18.1831 8.22096 18.3087C8.22096 18.4342 8.19623 18.5586 8.14819 18.6746C8.10014 18.7906 8.02971 18.896 7.94093 18.9847L6.03654 20.8891C5.94598 20.9758 5.8392 21.0438 5.72232 21.0891C5.60834 21.1395 5.4851 21.1655 5.36048 21.1655C5.23587 21.1655 5.11263 21.1395 4.99865 21.0891C4.88176 21.0438 4.77498 20.9758 4.68442 20.8891L2.78003 18.9847C2.60073 18.8054 2.5 18.5622 2.5 18.3087C2.5 18.0551 2.60073 17.8119 2.78003 17.6326C2.95933 17.4533 3.20252 17.3526 3.45609 17.3526C3.70966 17.3526 3.95285 17.4533 4.13215 17.6326L4.40829 17.9183V7.08174L4.13215 7.3674C3.95285 7.5467 3.70966 7.64743 3.45609 7.64743C3.20252 7.64743 2.95933 7.5467 2.78003 7.3674C2.60073 7.1881 2.5 6.94491 2.5 6.69134C2.5 6.43777 2.60073 6.19459 2.78003 6.01528L4.68442 4.11089C4.77498 4.0242 4.88176 3.95625 4.99865 3.91093C5.11263 3.86055 5.23587 3.83453 5.36048 3.83453C5.4851 3.83453 5.60834 3.86055 5.72232 3.91093C5.8392 3.95625 5.94598 4.0242 6.03654 4.11089L7.94093 6.01528C8.02971 6.10406 8.10014 6.20946 8.14819 6.32546C8.19623 6.44146 8.22096 6.56579 8.22096 6.69134C8.22096 6.8169 8.19623 6.94122 8.14819 7.05722C8.10014 7.17322 8.02971 7.27862 7.94093 7.3674C7.85215 7.45618 7.74675 7.52661 7.63075 7.57466C7.51476 7.6227 7.39043 7.64743 7.26487 7.64743C7.13932 7.64743 7.01499 7.6227 6.89899 7.57466C6.78299 7.52661 6.6776 7.45618 6.58881 7.3674Z" fill="#17171B"/>
<path d="M13.0259 17.3087H21.5478C21.8003 17.3087 22.0425 17.409 22.2211 17.5876C22.3997 17.7661 22.5 18.0083 22.5 18.2609C22.5 18.5134 22.3997 18.7556 22.2211 18.9342C22.0425 19.1127 21.8003 19.2131 21.5478 19.2131H13.0259C12.7733 19.2131 12.5311 19.1127 12.3525 18.9342C12.174 18.7556 12.0737 18.5134 12.0737 18.2609C12.0737 18.0083 12.174 17.7661 12.3525 17.5876C12.5311 17.409 12.7733 17.3087 13.0259 17.3087Z" fill="#17171B"/>
<path d="M13.0259 11.3087H19.5479C19.8004 11.3087 20.0426 11.409 20.2212 11.5875C20.3998 11.7661 20.5001 12.0083 20.5001 12.2608C20.5001 12.5134 20.3998 12.7556 20.2212 12.9342C20.0426 13.1127 19.8004 13.213 19.5479 13.213H13.0259C12.7734 13.213 12.5312 13.1127 12.3526 12.9342C12.1741 12.7556 12.0737 12.5134 12.0737 12.2608C12.0737 12.0083 12.1741 11.7661 12.3526 11.5875C12.5312 11.409 12.7734 11.3087 13.0259 11.3087Z" fill="#17171B"/>
<path d="M13.0259 5.30865H17.5479C17.8004 5.30865 18.0426 5.40897 18.2212 5.58755C18.3998 5.76612 18.5001 6.00831 18.5001 6.26085C18.5001 6.51339 18.3998 6.75558 18.2212 6.93415C18.0426 7.11273 17.8004 7.21305 17.5479 7.21305H13.0259C12.7734 7.21305 12.5312 7.11273 12.3526 6.93415C12.1741 6.75558 12.0737 6.51339 12.0737 6.26085C12.0737 6.00831 12.1741 5.76612 12.3526 5.58755C12.5312 5.40897 12.7734 5.30865 13.0259 5.30865Z" fill="#17171B"/>
</svg>
